<?xml version="1.0" encoding="utf-8"?>
<!-- Generator: Adobe Illustrator 27.6.1, SVG Export Plug-In . SVG Version: 6.00 Build 0)  -->
<svg version="1.1" id="visual" xmlns="http://www.w3.org/2000/svg" xmlns:xlink="http://www.w3.org/1999/xlink" x="0px" y="0px"
	 viewBox="0 0 1920 1080" style="enable-background:new 0 0 1920 1080;" xml:space="preserve">
<style type="text/css">
	.st0{fill:none;}
	.st1{fill:#964B00;}
	.st2{fill:#A55200;}
	.st3{fill:#B55A00;}
	.st4{fill:#C46200;}
</style>
<rect class="st0" width="1920" height="1080"/>
<path class="st1" d="M0,535l53.3-14.5C106.7,506,213.3,477,320,447s213.3-61,320-96.5s213.3-75.5,320-55.7
	c106.7,19.9,213.3,99.5,320,112.5s213.3-40.6,320-38.6s213.3,59.6,266.7,88.5L1920,486v595h-53.3c-53.4,0-160,0-266.7,0
	s-213.3,0-320,0s-213.3,0-320,0s-213.3,0-320,0s-213.3,0-320,0s-213.3,0-266.7,0H0V535z"/>
<path class="st2" d="M0,599l53.3-13.7c53.4-13.6,160-41,266.7-44.3s213.3,17.3,320,25.2c106.7,7.8,213.3,2.8,320,0.3
	s213.3-2.5,320-20.7c106.7-18.1,213.3-54.5,320-67.6c106.7-13.2,213.3-3.2,266.7,1.8l53.3,5v596h-53.3c-53.4,0-160,0-266.7,0
	s-213.3,0-320,0s-213.3,0-320,0s-213.3,0-320,0s-213.3,0-320,0s-213.3,0-266.7,0H0V599z"/>
<path class="st3" d="M0,569l53.3,3.7c53.4,3.6,160,11,266.7,17.5s213.3,12.1,320,12.8s213.3-3.7,320-0.7s213.3,13.4,320,22.5
	c106.7,9.2,213.3,17.2,320,31.2s213.3,34,266.7,44l53.3,10v371h-53.3c-53.4,0-160,0-266.7,0s-213.3,0-320,0s-213.3,0-320,0
	s-213.3,0-320,0s-213.3,0-320,0s-213.3,0-266.7,0H0V569z"/>
<path class="st4" d="M0,898l53.3-17.7c53.4-17.6,160-53,266.7-45.5s213.3,57.9,320,52.4s213.3-66.9,320-97.9s213.3-31.6,320-25.3
	s213.3,19.7,320,46s213.3,65.7,266.7,85.3L1920,915v166h-53.3c-53.4,0-160,0-266.7,0s-213.3,0-320,0s-213.3,0-320,0s-213.3,0-320,0
	s-213.3,0-320,0s-213.3,0-266.7,0H0V898z"/>
</svg>
