<?xml version="1.0" encoding="utf-8"?>
<!-- Generator: Adobe Illustrator 27.6.1, SVG Export Plug-In . SVG Version: 6.00 Build 0)  -->
<svg version="1.1" id="visual" xmlns="http://www.w3.org/2000/svg" xmlns:xlink="http://www.w3.org/1999/xlink" x="0px" y="0px"
	 viewBox="0 0 1920 1080" style="enable-background:new 0 0 1920 1080;" xml:space="preserve">
<style type="text/css">
	.st0{fill:#1473E6;}
	.st1{fill:#3267E7;}
	.st2{fill:#4B5AE5;}
	.st3{fill:#6348E0;}
</style>
<rect y="0" class="st0" width="1920" height="1080"/>
<path class="st0" d="M0,604l53.3,6.2c53.4,6.1,160,18.5,266.7,49.5s213.3,80.6,320,120.8s213.3,70.8,320,48.2
	C1066.7,806,1173.3,730,1280,726s213.3,64,320,53.3c106.7-10.6,213.3-100,266.7-144.6L1920,590V0h-53.3c-53.4,0-160,0-266.7,0
	s-213.3,0-320,0s-213.3,0-320,0S746.7,0,640,0S426.7,0,320,0S106.7,0,53.3,0H0V604z"/>
<path class="st1" d="M0,587l53.3-8.2c53.4-8.1,160-24.5,266.7-52.6C426.7,498,533.3,458,640,469.8c106.7,11.9,213.3,75.5,320,110.5
	s213.3,41.4,320,21.5c106.7-19.8,213.3-65.8,320-103.1c106.7-37.4,213.3-66,266.7-80.4L1920,404V0h-53.3c-53.4,0-160,0-266.7,0
	s-213.3,0-320,0s-213.3,0-320,0S746.7,0,640,0S426.7,0,320,0S106.7,0,53.3,0H0V587z"/>
<path class="st2" d="M0,312l53.3,30c53.4,30,160,90,266.7,100.7c106.7,10.6,213.3-28,320-59.4C746.7,352,853.3,328,960,336.8
	c106.7,8.9,213.3,50.5,320,70.4c106.7,19.8,213.3,17.8,320,25.3s213.3,24.5,266.7,33l53.3,8.5V0h-53.3c-53.4,0-160,0-266.7,0
	s-213.3,0-320,0s-213.3,0-320,0S746.7,0,640,0S426.7,0,320,0S106.7,0,53.3,0H0V312z"/>
<path class="st3" d="M0,234l53.3,5.5c53.4,5.5,160,16.5,266.7,2.2c106.7-14.4,213.3-54,320-48.2s213.3,57.2,320,56.3
	c106.7-0.8,213.3-53.8,320-66.3s213.3,15.5,320,22.2c106.7,6.6,213.3-8,266.7-15.4l53.3-7.3V0h-53.3c-53.4,0-160,0-266.7,0
	s-213.3,0-320,0s-213.3,0-320,0S746.7,0,640,0S426.7,0,320,0S106.7,0,53.3,0H0V234z"/>
</svg>
